# xmcd CD database file
#
# Track frame offsets:
#	150
#	13291
#	26964
#	40593
#	51475
#	63521
#	76074
#	89816
#	102051
#	115030
#	128652
#	140252
#	152502
#	163987
#	176094
#	189183
#	201195
#	212695
#	225799
#	238929
#	252057
#	263801
#
# Disc length: 3669 seconds
#
# Revision: 6
# Processed by: cddbd v1.5.2PL0 Copyright (c) Steve Scherf et al.
# Submitted via: CDex 1.51
#
DISCID=280e5316
DTITLE=Robert Johnson - The Complete Recordings:  The Centennial Collection, d1
DYEAR=2011
DGENRE=Blues
TTITLE0=Kind Hearted Woman Blues
TTITLE1=I Believe I'll Dust My Broom
TTITLE2=Sweet Home Chicago
TTITLE3=Ramblin' On My Mind
TTITLE4=When You Got A Good Friend
TTITLE5=Come On In My Kitchen
TTITLE6=Terraplane Blues
TTITLE7=Phonograph Blues
TTITLE8=32-20 Blues
TTITLE9=They're Red Hot
TTITLE10=Dead Shrimp Blues
TTITLE11=Cross Road Blues
TTITLE12=Walkin' Blues
TTITLE13=Last Fair Deal Gone Down
TTITLE14=Preachin' Blues (Up Jumped The Devil)
TTITLE15=If I Had Possession Over Judgment Day
TTITLE16=Kind Hearted Woman Blues (alternate)
TTITLE17=Ramblin' On My Mind (alternate)
TTITLE18=When You Got A Good Friend (alternate)
TTITLE19=Come On In My Kitchen (alternate)
TTITLE20=Phonograph Blues (alternate)
TTITLE21=Cross Road Blues (alternate)
EXTD=YEAR: 2011
EXTT0=
EXTT1=
EXTT2=
EXTT3=
EXTT4=
EXTT5=
EXTT6=
EXTT7=
EXTT8=
EXTT9=
EXTT10=
EXTT11=
EXTT12=
EXTT13=
EXTT14=
EXTT15=
EXTT16=
EXTT17=
EXTT18=
EXTT19=
EXTT20=
EXTT21=
PLAYORDER=
